<mxfile host="app.diagrams.net" agent="Mozilla/5.0 (Windows NT 10.0; Win64; x64) AppleWebKit/537.36 (KHTML, like Gecko) Chrome/141.0.0.0 Safari/537.36 Edg/141.0.0.0" version="28.2.4" pages="2">
  <diagram name="Página-1" id="vTpLMowqVWPcwkwb91qm">
    <mxGraphModel dx="695" dy="756" grid="1" gridSize="10" guides="1" tooltips="1" connect="1" arrows="1" fold="1" page="1" pageScale="1" pageWidth="827" pageHeight="1169" math="0" shadow="0">
      <root>
        <mxCell id="0" />
        <mxCell id="1" parent="0" />
        <mxCell id="RYSF5wg6l-NkyFcAEL5K-18" style="edgeStyle=orthogonalEdgeStyle;rounded=0;orthogonalLoop=1;jettySize=auto;html=1;" edge="1" parent="1" source="RYSF5wg6l-NkyFcAEL5K-1" target="RYSF5wg6l-NkyFcAEL5K-9">
          <mxGeometry relative="1" as="geometry" />
        </mxCell>
        <mxCell id="RYSF5wg6l-NkyFcAEL5K-1" value="Atleta" style="shape=umlActor;verticalLabelPosition=bottom;verticalAlign=top;html=1;outlineConnect=0;" vertex="1" parent="1">
          <mxGeometry x="100" y="110" width="30" height="60" as="geometry" />
        </mxCell>
        <mxCell id="RYSF5wg6l-NkyFcAEL5K-19" style="edgeStyle=orthogonalEdgeStyle;rounded=0;orthogonalLoop=1;jettySize=auto;html=1;entryX=0;entryY=0.5;entryDx=0;entryDy=0;" edge="1" parent="1" source="RYSF5wg6l-NkyFcAEL5K-2" target="RYSF5wg6l-NkyFcAEL5K-11">
          <mxGeometry relative="1" as="geometry" />
        </mxCell>
        <mxCell id="RYSF5wg6l-NkyFcAEL5K-20" style="edgeStyle=orthogonalEdgeStyle;rounded=0;orthogonalLoop=1;jettySize=auto;html=1;" edge="1" parent="1" source="RYSF5wg6l-NkyFcAEL5K-2" target="RYSF5wg6l-NkyFcAEL5K-14">
          <mxGeometry relative="1" as="geometry" />
        </mxCell>
        <mxCell id="RYSF5wg6l-NkyFcAEL5K-21" style="edgeStyle=orthogonalEdgeStyle;rounded=0;orthogonalLoop=1;jettySize=auto;html=1;entryX=0;entryY=0.5;entryDx=0;entryDy=0;" edge="1" parent="1" source="RYSF5wg6l-NkyFcAEL5K-2" target="RYSF5wg6l-NkyFcAEL5K-10">
          <mxGeometry relative="1" as="geometry" />
        </mxCell>
        <mxCell id="RYSF5wg6l-NkyFcAEL5K-22" style="edgeStyle=orthogonalEdgeStyle;rounded=0;orthogonalLoop=1;jettySize=auto;html=1;entryX=0;entryY=0.5;entryDx=0;entryDy=0;" edge="1" parent="1" source="RYSF5wg6l-NkyFcAEL5K-2" target="RYSF5wg6l-NkyFcAEL5K-13">
          <mxGeometry relative="1" as="geometry" />
        </mxCell>
        <mxCell id="RYSF5wg6l-NkyFcAEL5K-23" style="edgeStyle=orthogonalEdgeStyle;rounded=0;orthogonalLoop=1;jettySize=auto;html=1;entryX=0;entryY=0.5;entryDx=0;entryDy=0;" edge="1" parent="1" source="RYSF5wg6l-NkyFcAEL5K-2" target="RYSF5wg6l-NkyFcAEL5K-12">
          <mxGeometry relative="1" as="geometry" />
        </mxCell>
        <mxCell id="RYSF5wg6l-NkyFcAEL5K-25" style="edgeStyle=orthogonalEdgeStyle;rounded=0;orthogonalLoop=1;jettySize=auto;html=1;entryX=0;entryY=0.5;entryDx=0;entryDy=0;" edge="1" parent="1" source="RYSF5wg6l-NkyFcAEL5K-2" target="RYSF5wg6l-NkyFcAEL5K-15">
          <mxGeometry relative="1" as="geometry">
            <Array as="points">
              <mxPoint x="105" y="640" />
            </Array>
          </mxGeometry>
        </mxCell>
        <mxCell id="RYSF5wg6l-NkyFcAEL5K-33" style="edgeStyle=orthogonalEdgeStyle;rounded=0;orthogonalLoop=1;jettySize=auto;html=1;entryX=0.5;entryY=0;entryDx=0;entryDy=0;" edge="1" parent="1" source="RYSF5wg6l-NkyFcAEL5K-2" target="RYSF5wg6l-NkyFcAEL5K-16">
          <mxGeometry relative="1" as="geometry">
            <Array as="points">
              <mxPoint x="105" y="200" />
              <mxPoint x="455" y="200" />
            </Array>
          </mxGeometry>
        </mxCell>
        <mxCell id="RYSF5wg6l-NkyFcAEL5K-36" style="edgeStyle=orthogonalEdgeStyle;rounded=0;orthogonalLoop=1;jettySize=auto;html=1;" edge="1" parent="1" source="RYSF5wg6l-NkyFcAEL5K-2" target="RYSF5wg6l-NkyFcAEL5K-17">
          <mxGeometry relative="1" as="geometry">
            <Array as="points">
              <mxPoint x="70" y="90" />
              <mxPoint x="595" y="90" />
            </Array>
          </mxGeometry>
        </mxCell>
        <mxCell id="RYSF5wg6l-NkyFcAEL5K-2" value="Administrador" style="shape=umlActor;verticalLabelPosition=bottom;verticalAlign=top;html=1;outlineConnect=0;" vertex="1" parent="1">
          <mxGeometry x="60" y="280" width="30" height="60" as="geometry" />
        </mxCell>
        <mxCell id="RYSF5wg6l-NkyFcAEL5K-26" style="edgeStyle=orthogonalEdgeStyle;rounded=0;orthogonalLoop=1;jettySize=auto;html=1;exitX=0.5;exitY=0.5;exitDx=0;exitDy=0;exitPerimeter=0;entryX=0.5;entryY=1;entryDx=0;entryDy=0;" edge="1" parent="1" source="RYSF5wg6l-NkyFcAEL5K-5" target="RYSF5wg6l-NkyFcAEL5K-15">
          <mxGeometry relative="1" as="geometry" />
        </mxCell>
        <mxCell id="RYSF5wg6l-NkyFcAEL5K-5" value="Comitê" style="shape=umlActor;verticalLabelPosition=bottom;verticalAlign=top;html=1;outlineConnect=0;" vertex="1" parent="1">
          <mxGeometry x="130" y="670" width="30" height="60" as="geometry" />
        </mxCell>
        <mxCell id="RYSF5wg6l-NkyFcAEL5K-9" value="Inscrever Atleta" style="ellipse;whiteSpace=wrap;html=1;" vertex="1" parent="1">
          <mxGeometry x="230" y="120" width="110" height="40" as="geometry" />
        </mxCell>
        <mxCell id="RYSF5wg6l-NkyFcAEL5K-10" value="Emitir Estatisticas" style="ellipse;whiteSpace=wrap;html=1;" vertex="1" parent="1">
          <mxGeometry x="230" y="360" width="110" height="40" as="geometry" />
        </mxCell>
        <mxCell id="RYSF5wg6l-NkyFcAEL5K-11" value="Verificar Conflitos de Horario" style="ellipse;whiteSpace=wrap;html=1;" vertex="1" parent="1">
          <mxGeometry x="230" y="210" width="110" height="40" as="geometry" />
        </mxCell>
        <mxCell id="RYSF5wg6l-NkyFcAEL5K-12" value="Editar Competição" style="ellipse;whiteSpace=wrap;html=1;" vertex="1" parent="1">
          <mxGeometry x="230" y="510" width="110" height="40" as="geometry" />
        </mxCell>
        <mxCell id="RYSF5wg6l-NkyFcAEL5K-13" value="Cadastrar Competição" style="ellipse;whiteSpace=wrap;html=1;" vertex="1" parent="1">
          <mxGeometry x="230" y="440" width="110" height="40" as="geometry" />
        </mxCell>
        <mxCell id="RYSF5wg6l-NkyFcAEL5K-14" value="Consultar Ranking" style="ellipse;whiteSpace=wrap;html=1;" vertex="1" parent="1">
          <mxGeometry x="230" y="290" width="110" height="40" as="geometry" />
        </mxCell>
        <mxCell id="RYSF5wg6l-NkyFcAEL5K-15" value="Gerar Relatorio de Medalhas" style="ellipse;whiteSpace=wrap;html=1;" vertex="1" parent="1">
          <mxGeometry x="390" y="620" width="110" height="40" as="geometry" />
        </mxCell>
        <mxCell id="RYSF5wg6l-NkyFcAEL5K-16" value="Gerenciar locais" style="ellipse;whiteSpace=wrap;html=1;" vertex="1" parent="1">
          <mxGeometry x="400" y="300" width="110" height="40" as="geometry" />
        </mxCell>
        <mxCell id="RYSF5wg6l-NkyFcAEL5K-17" value="Registrar Resultado" style="ellipse;whiteSpace=wrap;html=1;" vertex="1" parent="1">
          <mxGeometry x="540" y="470" width="110" height="40" as="geometry" />
        </mxCell>
        <mxCell id="RYSF5wg6l-NkyFcAEL5K-28" value="Extends" style="endArrow=block;endSize=16;endFill=0;html=1;rounded=0;entryX=1;entryY=1;entryDx=0;entryDy=0;" edge="1" parent="1" source="RYSF5wg6l-NkyFcAEL5K-15" target="RYSF5wg6l-NkyFcAEL5K-14">
          <mxGeometry width="160" relative="1" as="geometry">
            <mxPoint x="200" y="550" as="sourcePoint" />
            <mxPoint x="360" y="550" as="targetPoint" />
          </mxGeometry>
        </mxCell>
        <mxCell id="RYSF5wg6l-NkyFcAEL5K-29" value="" style="endArrow=block;dashed=1;endFill=0;endSize=12;html=1;rounded=0;entryX=1;entryY=1;entryDx=0;entryDy=0;" edge="1" parent="1" source="RYSF5wg6l-NkyFcAEL5K-16" target="RYSF5wg6l-NkyFcAEL5K-11">
          <mxGeometry width="160" relative="1" as="geometry">
            <mxPoint x="200" y="550" as="sourcePoint" />
            <mxPoint x="360" y="550" as="targetPoint" />
          </mxGeometry>
        </mxCell>
        <mxCell id="RYSF5wg6l-NkyFcAEL5K-31" value="Include" style="edgeLabel;html=1;align=center;verticalAlign=middle;resizable=0;points=[];" vertex="1" connectable="0" parent="RYSF5wg6l-NkyFcAEL5K-29">
          <mxGeometry x="-0.1719" y="-3" relative="1" as="geometry">
            <mxPoint as="offset" />
          </mxGeometry>
        </mxCell>
        <mxCell id="RYSF5wg6l-NkyFcAEL5K-30" value="" style="endArrow=block;dashed=1;endFill=0;endSize=12;html=1;rounded=0;entryX=0.618;entryY=0;entryDx=0;entryDy=0;entryPerimeter=0;exitX=0.5;exitY=1;exitDx=0;exitDy=0;" edge="1" parent="1" source="RYSF5wg6l-NkyFcAEL5K-17" target="RYSF5wg6l-NkyFcAEL5K-15">
          <mxGeometry width="160" relative="1" as="geometry">
            <mxPoint x="420" y="710" as="sourcePoint" />
            <mxPoint x="580" y="710" as="targetPoint" />
          </mxGeometry>
        </mxCell>
        <mxCell id="RYSF5wg6l-NkyFcAEL5K-32" value="Include" style="edgeLabel;html=1;align=center;verticalAlign=middle;resizable=0;points=[];" vertex="1" connectable="0" parent="RYSF5wg6l-NkyFcAEL5K-30">
          <mxGeometry x="-0.4951" y="4" relative="1" as="geometry">
            <mxPoint x="-23" y="19" as="offset" />
          </mxGeometry>
        </mxCell>
      </root>
    </mxGraphModel>
  </diagram>
  <diagram id="TbTV3gqGE-XJcyPQ6M2U" name="Página-2">
    <mxGraphModel dx="1264" dy="1375" grid="1" gridSize="10" guides="1" tooltips="1" connect="1" arrows="1" fold="1" page="1" pageScale="1" pageWidth="827" pageHeight="1169" math="0" shadow="0">
      <root>
        <mxCell id="0" />
        <mxCell id="1" parent="0" />
        <mxCell id="nXiAyGhjp3MLY9a_Aqdb-5" value="" style="shape=folder;fontStyle=1;spacingTop=10;tabWidth=40;tabHeight=14;tabPosition=left;html=1;whiteSpace=wrap;" vertex="1" parent="1">
          <mxGeometry x="70" y="180" width="910" height="170" as="geometry" />
        </mxCell>
        <mxCell id="nXiAyGhjp3MLY9a_Aqdb-1" value="ServiçoRelatorio" style="swimlane;fontStyle=1;align=center;verticalAlign=top;childLayout=stackLayout;horizontal=1;startSize=26;horizontalStack=0;resizeParent=1;resizeParentMax=0;resizeLast=0;collapsible=1;marginBottom=0;whiteSpace=wrap;html=1;" vertex="1" parent="1">
          <mxGeometry x="80" y="240" width="190" height="90" as="geometry" />
        </mxCell>
        <mxCell id="nXiAyGhjp3MLY9a_Aqdb-3" value="" style="line;strokeWidth=1;fillColor=none;align=left;verticalAlign=middle;spacingTop=-1;spacingLeft=3;spacingRight=3;rotatable=0;labelPosition=right;points=[];portConstraint=eastwest;strokeColor=inherit;" vertex="1" parent="nXiAyGhjp3MLY9a_Aqdb-1">
          <mxGeometry y="26" width="190" height="8" as="geometry" />
        </mxCell>
        <mxCell id="nXiAyGhjp3MLY9a_Aqdb-4" value="+gerarRelatorioMedalhas()&lt;br&gt;+gerarRankingPaises()&lt;div&gt;+ferarEstatisticasPaticipacao()&lt;/div&gt;" style="text;strokeColor=none;fillColor=none;align=left;verticalAlign=top;spacingLeft=4;spacingRight=4;overflow=hidden;rotatable=0;points=[[0,0.5],[1,0.5]];portConstraint=eastwest;whiteSpace=wrap;html=1;" vertex="1" parent="nXiAyGhjp3MLY9a_Aqdb-1">
          <mxGeometry y="34" width="190" height="56" as="geometry" />
        </mxCell>
        <mxCell id="nXiAyGhjp3MLY9a_Aqdb-6" value="" style="shape=folder;fontStyle=1;spacingTop=10;tabWidth=40;tabHeight=14;tabPosition=left;html=1;whiteSpace=wrap;" vertex="1" parent="1">
          <mxGeometry x="560" y="400" width="670" height="700" as="geometry" />
        </mxCell>
        <mxCell id="nXiAyGhjp3MLY9a_Aqdb-7" value="" style="shape=folder;fontStyle=1;spacingTop=10;tabWidth=40;tabHeight=14;tabPosition=left;html=1;whiteSpace=wrap;" vertex="1" parent="1">
          <mxGeometry x="1140" y="190" width="730" height="160" as="geometry" />
        </mxCell>
        <mxCell id="nXiAyGhjp3MLY9a_Aqdb-8" value="ServiçoAtleta" style="swimlane;fontStyle=1;align=center;verticalAlign=top;childLayout=stackLayout;horizontal=1;startSize=26;horizontalStack=0;resizeParent=1;resizeParentMax=0;resizeLast=0;collapsible=1;marginBottom=0;whiteSpace=wrap;html=1;" vertex="1" parent="1">
          <mxGeometry x="290" y="240" width="290" height="80" as="geometry" />
        </mxCell>
        <mxCell id="nXiAyGhjp3MLY9a_Aqdb-10" value="" style="line;strokeWidth=1;fillColor=none;align=left;verticalAlign=middle;spacingTop=-1;spacingLeft=3;spacingRight=3;rotatable=0;labelPosition=right;points=[];portConstraint=eastwest;strokeColor=inherit;" vertex="1" parent="nXiAyGhjp3MLY9a_Aqdb-8">
          <mxGeometry y="26" width="290" height="8" as="geometry" />
        </mxCell>
        <mxCell id="nXiAyGhjp3MLY9a_Aqdb-11" value="+inscreverAtleta(a: Atleta, c: Competicao)&lt;div&gt;+validarIncricao(&lt;span style=&quot;background-color: transparent; color: light-dark(rgb(0, 0, 0), rgb(255, 255, 255));&quot;&gt;a: Atleta, c: Competicao): boolean&lt;/span&gt;&lt;/div&gt;" style="text;strokeColor=none;fillColor=none;align=left;verticalAlign=top;spacingLeft=4;spacingRight=4;overflow=hidden;rotatable=0;points=[[0,0.5],[1,0.5]];portConstraint=eastwest;whiteSpace=wrap;html=1;" vertex="1" parent="nXiAyGhjp3MLY9a_Aqdb-8">
          <mxGeometry y="34" width="290" height="46" as="geometry" />
        </mxCell>
        <mxCell id="nXiAyGhjp3MLY9a_Aqdb-12" value="Serviços" style="text;html=1;align=center;verticalAlign=middle;resizable=0;points=[];autosize=1;strokeColor=none;fillColor=none;" vertex="1" parent="1">
          <mxGeometry x="400" y="200" width="70" height="30" as="geometry" />
        </mxCell>
        <mxCell id="nXiAyGhjp3MLY9a_Aqdb-13" value="ServiçoCompeticao" style="swimlane;fontStyle=1;align=center;verticalAlign=top;childLayout=stackLayout;horizontal=1;startSize=26;horizontalStack=0;resizeParent=1;resizeParentMax=0;resizeLast=0;collapsible=1;marginBottom=0;whiteSpace=wrap;html=1;" vertex="1" parent="1">
          <mxGeometry x="600" y="225" width="350" height="110" as="geometry" />
        </mxCell>
        <mxCell id="nXiAyGhjp3MLY9a_Aqdb-15" value="" style="line;strokeWidth=1;fillColor=none;align=left;verticalAlign=middle;spacingTop=-1;spacingLeft=3;spacingRight=3;rotatable=0;labelPosition=right;points=[];portConstraint=eastwest;strokeColor=inherit;" vertex="1" parent="nXiAyGhjp3MLY9a_Aqdb-13">
          <mxGeometry y="26" width="350" height="8" as="geometry" />
        </mxCell>
        <mxCell id="nXiAyGhjp3MLY9a_Aqdb-16" value="+ cadastrarCompeticao(c: Competicao)&lt;div&gt;+alocarLocal(c: Competicao, l: Local)&lt;br&gt;+registrarResultado(&lt;span style=&quot;background-color: transparent; color: light-dark(rgb(0, 0, 0), rgb(255, 255, 255));&quot;&gt;c: Competicao, r: Resultado&lt;/span&gt;&lt;span style=&quot;background-color: transparent; color: light-dark(rgb(0, 0, 0), rgb(255, 255, 255));&quot;&gt;)&lt;/span&gt;&lt;/div&gt;&lt;div&gt;&lt;span style=&quot;background-color: transparent; color: light-dark(rgb(0, 0, 0), rgb(255, 255, 255));&quot;&gt;+verificarConflitos(l: Local, data: Date, horario: String): boolean&lt;/span&gt;&lt;/div&gt;" style="text;strokeColor=none;fillColor=none;align=left;verticalAlign=top;spacingLeft=4;spacingRight=4;overflow=hidden;rotatable=0;points=[[0,0.5],[1,0.5]];portConstraint=eastwest;whiteSpace=wrap;html=1;" vertex="1" parent="nXiAyGhjp3MLY9a_Aqdb-13">
          <mxGeometry y="34" width="350" height="76" as="geometry" />
        </mxCell>
        <mxCell id="nXiAyGhjp3MLY9a_Aqdb-17" value="RepositorioCompeticao" style="swimlane;fontStyle=1;align=center;verticalAlign=top;childLayout=stackLayout;horizontal=1;startSize=26;horizontalStack=0;resizeParent=1;resizeParentMax=0;resizeLast=0;collapsible=1;marginBottom=0;whiteSpace=wrap;html=1;" vertex="1" parent="1">
          <mxGeometry x="1160" y="255" width="210" height="80" as="geometry" />
        </mxCell>
        <mxCell id="nXiAyGhjp3MLY9a_Aqdb-19" value="" style="line;strokeWidth=1;fillColor=none;align=left;verticalAlign=middle;spacingTop=-1;spacingLeft=3;spacingRight=3;rotatable=0;labelPosition=right;points=[];portConstraint=eastwest;strokeColor=inherit;" vertex="1" parent="nXiAyGhjp3MLY9a_Aqdb-17">
          <mxGeometry y="26" width="210" height="8" as="geometry" />
        </mxCell>
        <mxCell id="nXiAyGhjp3MLY9a_Aqdb-20" value="+salvar(c: Competicao)&lt;div&gt;+buscarPorModalidade(nome: String)&lt;/div&gt;" style="text;strokeColor=none;fillColor=none;align=left;verticalAlign=top;spacingLeft=4;spacingRight=4;overflow=hidden;rotatable=0;points=[[0,0.5],[1,0.5]];portConstraint=eastwest;whiteSpace=wrap;html=1;" vertex="1" parent="nXiAyGhjp3MLY9a_Aqdb-17">
          <mxGeometry y="34" width="210" height="46" as="geometry" />
        </mxCell>
        <mxCell id="nXiAyGhjp3MLY9a_Aqdb-21" value="RepositorioAtleta" style="swimlane;fontStyle=1;align=center;verticalAlign=top;childLayout=stackLayout;horizontal=1;startSize=26;horizontalStack=0;resizeParent=1;resizeParentMax=0;resizeLast=0;collapsible=1;marginBottom=0;whiteSpace=wrap;html=1;" vertex="1" parent="1">
          <mxGeometry x="1410" y="255" width="200" height="70" as="geometry" />
        </mxCell>
        <mxCell id="nXiAyGhjp3MLY9a_Aqdb-23" value="" style="line;strokeWidth=1;fillColor=none;align=left;verticalAlign=middle;spacingTop=-1;spacingLeft=3;spacingRight=3;rotatable=0;labelPosition=right;points=[];portConstraint=eastwest;strokeColor=inherit;" vertex="1" parent="nXiAyGhjp3MLY9a_Aqdb-21">
          <mxGeometry y="26" width="200" height="8" as="geometry" />
        </mxCell>
        <mxCell id="nXiAyGhjp3MLY9a_Aqdb-24" value="+salvar(c: Competicao)&lt;div&gt;+buscarPorPais(p: Pais)&lt;/div&gt;" style="text;strokeColor=none;fillColor=none;align=left;verticalAlign=top;spacingLeft=4;spacingRight=4;overflow=hidden;rotatable=0;points=[[0,0.5],[1,0.5]];portConstraint=eastwest;whiteSpace=wrap;html=1;" vertex="1" parent="nXiAyGhjp3MLY9a_Aqdb-21">
          <mxGeometry y="34" width="200" height="36" as="geometry" />
        </mxCell>
        <mxCell id="nXiAyGhjp3MLY9a_Aqdb-25" value="RepositorioPais" style="swimlane;fontStyle=1;align=center;verticalAlign=top;childLayout=stackLayout;horizontal=1;startSize=20;horizontalStack=0;resizeParent=1;resizeParentMax=0;resizeLast=0;collapsible=1;marginBottom=0;whiteSpace=wrap;html=1;" vertex="1" parent="1">
          <mxGeometry x="1654" y="250" width="180" height="84" as="geometry" />
        </mxCell>
        <mxCell id="nXiAyGhjp3MLY9a_Aqdb-27" value="" style="line;strokeWidth=1;fillColor=none;align=left;verticalAlign=middle;spacingTop=-1;spacingLeft=3;spacingRight=3;rotatable=0;labelPosition=right;points=[];portConstraint=eastwest;strokeColor=inherit;" vertex="1" parent="nXiAyGhjp3MLY9a_Aqdb-25">
          <mxGeometry y="20" width="180" height="8" as="geometry" />
        </mxCell>
        <mxCell id="nXiAyGhjp3MLY9a_Aqdb-28" value="+atualizarMetalhas(p: Pais)&lt;div&gt;&lt;div&gt;&lt;div&gt;&lt;/div&gt;&lt;div&gt;&lt;/div&gt;&lt;div&gt;&lt;/div&gt;&lt;/div&gt;&lt;/div&gt;&lt;div&gt;+listarTodos()&lt;/div&gt;" style="text;strokeColor=none;fillColor=none;align=left;verticalAlign=top;spacingLeft=4;spacingRight=4;overflow=hidden;rotatable=0;points=[[0,0.5],[1,0.5]];portConstraint=eastwest;whiteSpace=wrap;html=1;" vertex="1" parent="nXiAyGhjp3MLY9a_Aqdb-25">
          <mxGeometry y="28" width="180" height="56" as="geometry" />
        </mxCell>
        <mxCell id="nXiAyGhjp3MLY9a_Aqdb-33" value="Persistência" style="text;html=1;align=center;verticalAlign=middle;resizable=0;points=[];autosize=1;strokeColor=none;fillColor=none;" vertex="1" parent="1">
          <mxGeometry x="1460" y="210" width="90" height="30" as="geometry" />
        </mxCell>
        <mxCell id="nXiAyGhjp3MLY9a_Aqdb-59" style="edgeStyle=orthogonalEdgeStyle;rounded=0;orthogonalLoop=1;jettySize=auto;html=1;entryX=0.5;entryY=0;entryDx=0;entryDy=0;" edge="1" parent="1" source="nXiAyGhjp3MLY9a_Aqdb-34" target="nXiAyGhjp3MLY9a_Aqdb-42">
          <mxGeometry relative="1" as="geometry" />
        </mxCell>
        <mxCell id="nXiAyGhjp3MLY9a_Aqdb-60" value="1" style="edgeLabel;html=1;align=center;verticalAlign=middle;resizable=0;points=[];" vertex="1" connectable="0" parent="nXiAyGhjp3MLY9a_Aqdb-59">
          <mxGeometry x="-0.1781" relative="1" as="geometry">
            <mxPoint x="10" y="-20" as="offset" />
          </mxGeometry>
        </mxCell>
        <mxCell id="nXiAyGhjp3MLY9a_Aqdb-61" value="1" style="edgeLabel;html=1;align=center;verticalAlign=middle;resizable=0;points=[];" vertex="1" connectable="0" parent="nXiAyGhjp3MLY9a_Aqdb-59">
          <mxGeometry x="0.4155" relative="1" as="geometry">
            <mxPoint x="10" as="offset" />
          </mxGeometry>
        </mxCell>
        <mxCell id="nXiAyGhjp3MLY9a_Aqdb-34" value="Competicao" style="swimlane;fontStyle=1;align=center;verticalAlign=top;childLayout=stackLayout;horizontal=1;startSize=26;horizontalStack=0;resizeParent=1;resizeParentMax=0;resizeLast=0;collapsible=1;marginBottom=0;whiteSpace=wrap;html=1;" vertex="1" parent="1">
          <mxGeometry x="915.5" y="430" width="210" height="210" as="geometry" />
        </mxCell>
        <mxCell id="nXiAyGhjp3MLY9a_Aqdb-35" value="-idCompeticao: int&lt;div&gt;-nomeModalidade: String&lt;/div&gt;&lt;div&gt;-data: Date&lt;/div&gt;&lt;div&gt;-horario: String&lt;/div&gt;&lt;div&gt;-local: String&lt;/div&gt;&lt;div&gt;-status: String&lt;/div&gt;&lt;div&gt;-atletas: List&amp;lt;Atleta&amp;gt;&lt;/div&gt;&lt;div&gt;-resultado: Resultado&lt;/div&gt;" style="text;strokeColor=none;fillColor=none;align=left;verticalAlign=top;spacingLeft=4;spacingRight=4;overflow=hidden;rotatable=0;points=[[0,0.5],[1,0.5]];portConstraint=eastwest;whiteSpace=wrap;html=1;" vertex="1" parent="nXiAyGhjp3MLY9a_Aqdb-34">
          <mxGeometry y="26" width="210" height="124" as="geometry" />
        </mxCell>
        <mxCell id="nXiAyGhjp3MLY9a_Aqdb-36" value="" style="line;strokeWidth=1;fillColor=none;align=left;verticalAlign=middle;spacingTop=-1;spacingLeft=3;spacingRight=3;rotatable=0;labelPosition=right;points=[];portConstraint=eastwest;strokeColor=inherit;" vertex="1" parent="nXiAyGhjp3MLY9a_Aqdb-34">
          <mxGeometry y="150" width="210" height="8" as="geometry" />
        </mxCell>
        <mxCell id="nXiAyGhjp3MLY9a_Aqdb-37" value="+adicionarAtleta(a: Atleta)&lt;div&gt;+definirResultado(r: Resultado)&lt;/div&gt;&lt;div&gt;+alterarLocal(l: Local)&lt;/div&gt;" style="text;strokeColor=none;fillColor=none;align=left;verticalAlign=top;spacingLeft=4;spacingRight=4;overflow=hidden;rotatable=0;points=[[0,0.5],[1,0.5]];portConstraint=eastwest;whiteSpace=wrap;html=1;" vertex="1" parent="nXiAyGhjp3MLY9a_Aqdb-34">
          <mxGeometry y="158" width="210" height="52" as="geometry" />
        </mxCell>
        <mxCell id="nXiAyGhjp3MLY9a_Aqdb-38" value="Atleta" style="swimlane;fontStyle=1;align=center;verticalAlign=top;childLayout=stackLayout;horizontal=1;startSize=26;horizontalStack=0;resizeParent=1;resizeParentMax=0;resizeLast=0;collapsible=1;marginBottom=0;whiteSpace=wrap;html=1;" vertex="1" parent="1">
          <mxGeometry x="630" y="700" width="250" height="170" as="geometry" />
        </mxCell>
        <mxCell id="nXiAyGhjp3MLY9a_Aqdb-39" value="-idAtleta: int&lt;div&gt;-nome: String&lt;/div&gt;&lt;div&gt;-idade: int&lt;/div&gt;&lt;div&gt;-genero: String&lt;/div&gt;&lt;div&gt;-pais: Pais&lt;/div&gt;&lt;div&gt;-competicoes: List&amp;lt;Competicao&amp;gt;&lt;/div&gt;" style="text;strokeColor=none;fillColor=none;align=left;verticalAlign=top;spacingLeft=4;spacingRight=4;overflow=hidden;rotatable=0;points=[[0,0.5],[1,0.5]];portConstraint=eastwest;whiteSpace=wrap;html=1;" vertex="1" parent="nXiAyGhjp3MLY9a_Aqdb-38">
          <mxGeometry y="26" width="250" height="94" as="geometry" />
        </mxCell>
        <mxCell id="nXiAyGhjp3MLY9a_Aqdb-40" value="" style="line;strokeWidth=1;fillColor=none;align=left;verticalAlign=middle;spacingTop=-1;spacingLeft=3;spacingRight=3;rotatable=0;labelPosition=right;points=[];portConstraint=eastwest;strokeColor=inherit;" vertex="1" parent="nXiAyGhjp3MLY9a_Aqdb-38">
          <mxGeometry y="120" width="250" height="8" as="geometry" />
        </mxCell>
        <mxCell id="nXiAyGhjp3MLY9a_Aqdb-41" value="+inscricao(competicao: Competicao)&lt;div&gt;+listarCompeticao()&lt;/div&gt;" style="text;strokeColor=none;fillColor=none;align=left;verticalAlign=top;spacingLeft=4;spacingRight=4;overflow=hidden;rotatable=0;points=[[0,0.5],[1,0.5]];portConstraint=eastwest;whiteSpace=wrap;html=1;" vertex="1" parent="nXiAyGhjp3MLY9a_Aqdb-38">
          <mxGeometry y="128" width="250" height="42" as="geometry" />
        </mxCell>
        <mxCell id="nXiAyGhjp3MLY9a_Aqdb-42" value="Resultado" style="swimlane;fontStyle=1;align=center;verticalAlign=top;childLayout=stackLayout;horizontal=1;startSize=26;horizontalStack=0;resizeParent=1;resizeParentMax=0;resizeLast=0;collapsible=1;marginBottom=0;whiteSpace=wrap;html=1;" vertex="1" parent="1">
          <mxGeometry x="915.5" y="713" width="210" height="144" as="geometry" />
        </mxCell>
        <mxCell id="nXiAyGhjp3MLY9a_Aqdb-43" value="-idResultado: int&lt;br&gt;-vencedor: Atleta&lt;div&gt;-segundoLugar: Atleta&lt;/div&gt;&lt;div&gt;-terceiroLugar: Atleta&lt;/div&gt;&lt;div&gt;-tempoOuPonto: String&lt;/div&gt;" style="text;strokeColor=none;fillColor=none;align=left;verticalAlign=top;spacingLeft=4;spacingRight=4;overflow=hidden;rotatable=0;points=[[0,0.5],[1,0.5]];portConstraint=eastwest;whiteSpace=wrap;html=1;" vertex="1" parent="nXiAyGhjp3MLY9a_Aqdb-42">
          <mxGeometry y="26" width="210" height="84" as="geometry" />
        </mxCell>
        <mxCell id="nXiAyGhjp3MLY9a_Aqdb-44" value="" style="line;strokeWidth=1;fillColor=none;align=left;verticalAlign=middle;spacingTop=-1;spacingLeft=3;spacingRight=3;rotatable=0;labelPosition=right;points=[];portConstraint=eastwest;strokeColor=inherit;" vertex="1" parent="nXiAyGhjp3MLY9a_Aqdb-42">
          <mxGeometry y="110" width="210" height="8" as="geometry" />
        </mxCell>
        <mxCell id="nXiAyGhjp3MLY9a_Aqdb-45" value="+ calcularPontuacao()" style="text;strokeColor=none;fillColor=none;align=left;verticalAlign=top;spacingLeft=4;spacingRight=4;overflow=hidden;rotatable=0;points=[[0,0.5],[1,0.5]];portConstraint=eastwest;whiteSpace=wrap;html=1;" vertex="1" parent="nXiAyGhjp3MLY9a_Aqdb-42">
          <mxGeometry y="118" width="210" height="26" as="geometry" />
        </mxCell>
        <mxCell id="nXiAyGhjp3MLY9a_Aqdb-50" value="Pais" style="swimlane;fontStyle=1;align=center;verticalAlign=top;childLayout=stackLayout;horizontal=1;startSize=26;horizontalStack=0;resizeParent=1;resizeParentMax=0;resizeLast=0;collapsible=1;marginBottom=0;whiteSpace=wrap;html=1;" vertex="1" parent="1">
          <mxGeometry x="600" y="930" width="350" height="144" as="geometry" />
        </mxCell>
        <mxCell id="nXiAyGhjp3MLY9a_Aqdb-51" value="&lt;div&gt;- nome : String&lt;/div&gt;&lt;div&gt;- codigoISO : String&lt;/div&gt;&lt;div&gt;- totalOuro : int&lt;/div&gt;&lt;div&gt;- totalPrata : int&lt;/div&gt;&lt;div&gt;- totalBronze : int&lt;/div&gt;" style="text;strokeColor=none;fillColor=none;align=left;verticalAlign=top;spacingLeft=4;spacingRight=4;overflow=hidden;rotatable=0;points=[[0,0.5],[1,0.5]];portConstraint=eastwest;whiteSpace=wrap;html=1;" vertex="1" parent="nXiAyGhjp3MLY9a_Aqdb-50">
          <mxGeometry y="26" width="350" height="84" as="geometry" />
        </mxCell>
        <mxCell id="nXiAyGhjp3MLY9a_Aqdb-52" value="" style="line;strokeWidth=1;fillColor=none;align=left;verticalAlign=middle;spacingTop=-1;spacingLeft=3;spacingRight=3;rotatable=0;labelPosition=right;points=[];portConstraint=eastwest;strokeColor=inherit;" vertex="1" parent="nXiAyGhjp3MLY9a_Aqdb-50">
          <mxGeometry y="110" width="350" height="8" as="geometry" />
        </mxCell>
        <mxCell id="nXiAyGhjp3MLY9a_Aqdb-53" value="+ verificarDisponibilidade(data : Date, horario : String) : boolean" style="text;strokeColor=none;fillColor=none;align=left;verticalAlign=top;spacingLeft=4;spacingRight=4;overflow=hidden;rotatable=0;points=[[0,0.5],[1,0.5]];portConstraint=eastwest;whiteSpace=wrap;html=1;" vertex="1" parent="nXiAyGhjp3MLY9a_Aqdb-50">
          <mxGeometry y="118" width="350" height="26" as="geometry" />
        </mxCell>
        <mxCell id="nXiAyGhjp3MLY9a_Aqdb-54" style="edgeStyle=orthogonalEdgeStyle;rounded=0;orthogonalLoop=1;jettySize=auto;html=1;entryX=0.443;entryY=0.017;entryDx=0;entryDy=0;entryPerimeter=0;" edge="1" parent="1" source="nXiAyGhjp3MLY9a_Aqdb-38" target="nXiAyGhjp3MLY9a_Aqdb-50">
          <mxGeometry relative="1" as="geometry" />
        </mxCell>
        <mxCell id="nXiAyGhjp3MLY9a_Aqdb-55" value="1" style="edgeLabel;html=1;align=center;verticalAlign=middle;resizable=0;points=[];" vertex="1" connectable="0" parent="nXiAyGhjp3MLY9a_Aqdb-54">
          <mxGeometry x="-0.2271" y="3" relative="1" as="geometry">
            <mxPoint x="2" y="-15" as="offset" />
          </mxGeometry>
        </mxCell>
        <mxCell id="nXiAyGhjp3MLY9a_Aqdb-56" value="1" style="edgeLabel;html=1;align=center;verticalAlign=middle;resizable=0;points=[];" vertex="1" connectable="0" parent="nXiAyGhjp3MLY9a_Aqdb-54">
          <mxGeometry x="0.3761" y="1" relative="1" as="geometry">
            <mxPoint x="4" as="offset" />
          </mxGeometry>
        </mxCell>
        <mxCell id="nXiAyGhjp3MLY9a_Aqdb-57" value="1..*" style="edgeStyle=orthogonalEdgeStyle;rounded=0;orthogonalLoop=1;jettySize=auto;html=1;entryX=0.657;entryY=0.015;entryDx=0;entryDy=0;entryPerimeter=0;exitX=0.018;exitY=0.407;exitDx=0;exitDy=0;exitPerimeter=0;" edge="1" parent="1" source="nXiAyGhjp3MLY9a_Aqdb-37">
          <mxGeometry x="0.8334" y="10" relative="1" as="geometry">
            <mxPoint x="891.25" y="611.45" as="sourcePoint" />
            <mxPoint x="770.0000000000002" y="700" as="targetPoint" />
            <mxPoint as="offset" />
          </mxGeometry>
        </mxCell>
        <mxCell id="nXiAyGhjp3MLY9a_Aqdb-58" value="1..*" style="edgeLabel;html=1;align=center;verticalAlign=middle;resizable=0;points=[];" vertex="1" connectable="0" parent="nXiAyGhjp3MLY9a_Aqdb-57">
          <mxGeometry x="-0.3896" y="3" relative="1" as="geometry">
            <mxPoint x="49" y="-12" as="offset" />
          </mxGeometry>
        </mxCell>
        <mxCell id="nXiAyGhjp3MLY9a_Aqdb-62" value="Entidade" style="text;html=1;align=center;verticalAlign=middle;resizable=0;points=[];autosize=1;strokeColor=none;fillColor=none;" vertex="1" parent="1">
          <mxGeometry x="830" y="420" width="70" height="30" as="geometry" />
        </mxCell>
      </root>
    </mxGraphModel>
  </diagram>
</mxfile>
